<svg id="Capa_1" enable-background="new 0 0 512 512" height="512" viewBox="0 0 512 512" width="512" xmlns="http://www.w3.org/2000/svg"><g><g><path d="m146.076 434.487c-14.449 0-26.205 11.755-26.205 26.204s11.755 26.205 26.205 26.205 26.204-11.756 26.204-26.205-11.755-26.204-26.204-26.204zm0 37.409c-6.178 0-11.205-5.026-11.205-11.205 0-6.178 5.026-11.204 11.205-11.204 6.178 0 11.204 5.026 11.204 11.204 0 6.179-5.026 11.205-11.204 11.205z"/><path d="m219.185 80.752c0 4.143 3.358 7.5 7.5 7.5s7.5-3.357 7.5-7.5c0-7.168 12-9.429 12-24.418 0-14.957-12-17.267-12-24.419 0-7.148 12-9.457 12-24.415 0-4.143-3.358-7.5-7.5-7.5s-7.5 3.357-7.5 7.5c0 7.167-12 9.426-12 24.415 0 15.016 12 17.228 12 24.419 0 7.169-12 9.412-12 24.418z"/><path d="m174.001 80.752c0 4.143 3.358 7.5 7.5 7.5s7.5-3.357 7.5-7.5c0-7.168 12-9.429 12-24.418 0-14.957-12-17.267-12-24.419 0-7.148 12-9.457 12-24.415 0-4.143-3.358-7.5-7.5-7.5s-7.5 3.357-7.5 7.5c0 7.167-12 9.426-12 24.415 0 15.016 12 17.228 12 24.419 0 7.169-12 9.412-12 24.418z"/><path d="m264.368 80.752c0 4.143 3.358 7.5 7.5 7.5s7.5-3.357 7.5-7.5c0-7.168 12-9.429 12-24.418 0-14.957-12-17.267-12-24.419 0-7.148 12-9.457 12-24.415 0-4.143-3.358-7.5-7.5-7.5s-7.5 3.357-7.5 7.5c0 7.167-12 9.426-12 24.415 0 15.016 12 17.228 12 24.419 0 7.169-12 9.412-12 24.418z"/><path d="m420.783 196.399h-43.415v-15.189c9.154-2.853 15.817-11.406 15.817-21.487 0-12.406-10.093-22.5-22.5-22.5h-40.654c.208-1.636.154-.388.154-19.525 0-9.472-7.706-17.177-17.177-17.177h-160.647c-9.471 0-17.177 7.705-17.177 17.177 0 19.086-.056 17.878.154 19.525h-45.538c-12.407 0-22.5 10.094-22.5 22.5 0 10.08 6.663 18.634 15.817 21.487 0 27.007-2.4 57.792 18.247 95.183 2.002 3.627 6.563 4.944 10.191 2.94 3.626-2.002 4.942-6.564 2.94-10.19-18.581-33.652-16.378-61.135-16.378-86.92h264.251c0 25.51.461 32.524-2.144 46.909-11.223 61.555-65.237 108.368-129.982 108.368-36.591 0-71.089-14.839-96.295-41.657-2.836-3.018-7.583-3.167-10.601-.328-3.019 2.837-3.166 7.583-.329 10.602 9.616 10.231 20.604 18.944 32.542 25.965l-18.033 78.029c-24.235 4.084-42.759 25.204-42.759 50.582 0 28.292 23.017 51.309 51.308 51.309s51.309-23.017 51.309-51.309c0-14.097-5.717-26.882-14.952-36.165l2.766-11.967h91.374l18.226 78.861c2.945 12.746 15.534 20.534 28.188 17.605 10.723-2.478 18.212-11.887 18.212-22.882 0-1.78-.205-3.566-.607-5.306l-7.548-32.66c-.934-4.036-4.963-6.554-8.997-5.619-4.036.933-6.551 4.961-5.619 8.996l7.549 32.664c1.06 4.577-1.75 9.124-6.369 10.191-4.582 1.06-9.127-1.749-10.194-6.367l-33.034-142.936c5.444-1.797 10.784-3.915 15.983-6.338l18.185 78.685c.933 4.036 4.957 6.548 8.996 5.619 4.036-.933 6.551-4.961 5.619-8.996l-19.104-82.662c31.948-19.289 56.001-50.377 66.091-87.182h48.634c13.188 0 23.917-10.729 23.917-23.918 0-13.187-10.729-23.917-23.917-23.917zm-220.961 152.887c9.943 2.115 20.137 3.214 30.421 3.214 10.865 0 21.454-1.194 31.654-3.44l4.275 18.499h-70.574zm-53.746 147.714c-20.021 0-36.308-16.288-36.308-36.309 0-28.026 30.832-45.87 55.228-30.975 10.421 6.388 17.388 17.882 17.388 30.975 0 20.021-16.288 36.309-36.308 36.309zm31.489-118.027-5.639 24.398c0 .001 0 .003-.001.004l-2.669 11.549c-4.863-2.461-10.468-4.283-16.275-5.072l16.304-70.545c5.211 2.373 10.563 4.442 16.017 6.189zm11.1 18.587c.508-2.198-.303 1.31 3.467-15h77.507c2.91 12.591 2.104 9.106 3.467 15zm-38.48-279.862c0-1.2.977-2.177 2.177-2.177h160.646c1.2 0 2.177.977 2.177 2.177v17.349c0 1.2-.977 2.177-2.177 2.177h-160.647c-1.2 0-2.177-.977-2.177-2.177v-17.349zm219.683 49.526c-1.508 0-277.418 0-280.068 0-4.136 0-7.5-3.364-7.5-7.5s3.364-7.5 7.5-7.5h62.562 160.646 57.677c4.136 0 7.5 3.364 7.5 7.5 0 3.605-2.564 7.5-8.317 7.5zm50.915 62.01h-45.344c.964-5.913 1.571-12.02 1.807-17.835h43.537c4.917 0 8.917 4 8.917 8.917s-4 8.918-8.917 8.918z"/></g></g></svg>