<svg id="Capa_1" enable-background="new 0 0 511.771 511.771" height="512" viewBox="0 0 511.771 511.771" width="512" xmlns="http://www.w3.org/2000/svg"><g><path d="m391.024 0h-29.828c-4.142 0-7.5 3.357-7.5 7.5s3.358 7.5 7.5 7.5h29.828c8.873 0 16.092 7.219 16.092 16.092v242.891c0 4.143 3.358 7.5 7.5 7.5s7.5-3.357 7.5-7.5v-242.891c0-17.145-13.948-31.092-31.092-31.092z"/><path d="m414.616 298.445c-4.142 0-7.5 3.357-7.5 7.5v48.738c0 8.873-7.219 16.092-16.092 16.092h-270.277c-8.873 0-16.092-7.219-16.092-16.092v-323.591c0-8.873 7.219-16.092 16.092-16.092h208.487c4.142 0 7.5-3.357 7.5-7.5s-3.358-7.5-7.5-7.5h-208.487c-17.144 0-31.092 13.947-31.092 31.092v323.592c0 17.145 13.948 31.092 31.092 31.092h82.355v16.311c0 11.587 9.426 21.013 21.013 21.013h9.24v81.173c0 4.143 3.358 7.5 7.5 7.5s7.5-3.357 7.5-7.5v-81.173h15.062v81.173c0 4.143 3.358 7.5 7.5 7.5s7.5-3.357 7.5-7.5v-81.173h9.24c11.586 0 21.013-9.426 21.013-21.013v-16.311h82.355c17.144 0 31.092-13.947 31.092-31.092v-48.738c-.001-4.143-3.359-7.501-7.501-7.501zm-120.947 103.641c0 3.315-2.697 6.013-6.013 6.013h-63.542c-3.315 0-6.013-2.697-6.013-6.013v-16.311h75.567v16.311z"/><path d="m119.655 37.5v310.775c0 4.143 3.358 7.5 7.5 7.5h257.461c4.142 0 7.5-3.357 7.5-7.5v-310.775c0-4.143-3.358-7.5-7.5-7.5h-257.461c-4.142 0-7.5 3.357-7.5 7.5zm15 7.5h242.461v295.775h-242.461z"/><path d="m345.215 57.415c-11.542 0-20.933 9.391-20.933 20.933s9.39 20.933 20.933 20.933c11.542 0 20.932-9.391 20.932-20.933s-9.39-20.933-20.932-20.933zm0 26.865c-3.271 0-5.933-2.661-5.933-5.933s2.661-5.933 5.933-5.933c3.271 0 5.932 2.661 5.932 5.933s-2.661 5.933-5.932 5.933z"/><path d="m167.556 57.415c-11.542 0-20.932 9.391-20.932 20.933s9.39 20.933 20.932 20.933 20.933-9.391 20.933-20.933-9.39-20.933-20.933-20.933zm0 26.865c-3.271 0-5.932-2.661-5.932-5.933s2.661-5.933 5.932-5.933 5.933 2.661 5.933 5.933-2.661 5.933-5.933 5.933z"/><path d="m345.215 291.271c-11.542 0-20.933 9.391-20.933 20.933s9.39 20.933 20.933 20.933c11.542 0 20.932-9.391 20.932-20.933s-9.39-20.933-20.932-20.933zm0 26.866c-3.271 0-5.933-2.661-5.933-5.933s2.661-5.933 5.933-5.933c3.271 0 5.932 2.661 5.932 5.933s-2.661 5.933-5.932 5.933z"/><path d="m167.556 291.271c-11.542 0-20.932 9.391-20.932 20.933s9.39 20.933 20.932 20.933 20.933-9.391 20.933-20.933-9.39-20.933-20.933-20.933zm0 26.866c-3.271 0-5.932-2.661-5.932-5.933s2.661-5.933 5.932-5.933 5.933 2.661 5.933 5.933-2.661 5.933-5.933 5.933z"/><path d="m232.489 202.775h31.628c18.486 0 33.525-15.039 33.525-33.525 0-18.485-15.039-33.524-33.525-33.524h-31.628c-4.142 0-7.5 3.357-7.5 7.5v52.05c0 4.142 3.358 7.499 7.5 7.499zm7.5-52.049h24.128c10.215 0 18.525 8.31 18.525 18.524s-8.31 18.525-18.525 18.525h-24.128z"/><path d="m264.117 105.727h-48.38c-11.44 0-20.748 9.307-20.748 20.747v20.511c0 4.143 3.358 7.5 7.5 7.5s7.5-3.357 7.5-7.5v-20.511c0-3.169 2.579-5.747 5.748-5.747h48.38c26.757 0 48.525 21.768 48.525 48.524s-21.768 48.524-48.525 48.524h-31.628c-4.142 0-7.5 3.357-7.5 7.5v66.896h-15v-113.225c0-4.143-3.358-7.5-7.5-7.5s-7.5 3.357-7.5 7.5v115.354c0 7.097 5.774 12.871 12.872 12.871h19.257c7.097 0 12.872-5.774 12.872-12.871v-61.525h24.128c35.028 0 63.525-28.497 63.525-63.524s-28.498-63.524-63.526-63.524z"/></g></svg>