<svg id="Capa_1" enable-background="new 0 0 512 512" height="512" viewBox="0 0 512 512" width="512" xmlns="http://www.w3.org/2000/svg"><g><path d="m465.363 377.847c-6.336-6.335-14.759-9.824-23.717-9.824-8.96 0-17.381 3.49-23.71 9.824-6.08 6.08-12.452 11.762-19.066 17.062l-16.871-29.222c38.138-17.868 64.621-56.617 64.621-101.442v-28.26c12.761-5.167 21.79-17.682 21.79-32.274 0-9.296-3.621-18.037-10.197-24.614-6.575-6.575-15.316-10.196-24.613-10.196h-161.14c2.201-4.051 3.453-8.69 3.453-13.616 0-8.351-3.596-15.876-9.32-21.112 5.725-5.235 9.32-12.762 9.32-21.112s-3.596-15.876-9.32-21.112c5.725-5.235 9.32-12.762 9.32-21.112s-3.596-15.876-9.32-21.112c5.725-5.235 9.32-12.761 9.32-21.112-.001-15.778-12.836-28.613-28.613-28.613-95.019 0-172.717 75.521-176.257 169.689-15.672 3.386-27.454 17.35-27.454 34.021 0 9.296 3.621 18.037 10.197 24.614 3.367 3.367 7.305 5.954 11.593 7.682v28.239c0 44.823 26.481 83.571 64.616 101.44l-16.873 29.219c-6.612-5.299-12.981-10.978-19.06-17.057-13.076-13.075-34.352-13.076-47.426 0-6.336 6.335-9.825 14.758-9.825 23.718s3.49 17.381 9.824 23.709c28.256 28.255 61.216 50.14 97.965 65.047 35.483 14.385 72.962 21.679 111.4 21.679s75.917-7.294 111.415-21.687c1.508-.616 3.006-1.231 4.494-1.868 3.809-1.628 5.575-6.036 3.946-9.845-1.628-3.809-6.036-5.578-9.845-3.947-1.412.604-2.834 1.188-4.249 1.766-33.682 13.657-69.265 20.581-105.761 20.581s-72.079-6.924-105.761-20.58c-34.879-14.148-66.167-34.925-92.998-61.756-3.501-3.497-5.429-8.149-5.429-13.1 0-4.953 1.929-9.608 5.432-13.111 7.228-7.227 18.986-7.226 26.212 0 46.087 46.086 107.363 71.467 172.544 71.467s126.457-25.381 172.546-71.469c3.497-3.5 8.149-5.428 13.101-5.428s9.607 1.929 13.11 5.431c3.502 3.502 5.431 8.158 5.431 13.11 0 4.951-1.928 9.603-5.432 13.103-18.694 18.694-39.716 34.565-62.479 47.172-3.623 2.007-4.934 6.571-2.928 10.194 2.008 3.624 6.57 4.936 10.195 2.928 23.989-13.285 46.134-30.002 65.816-49.685 6.337-6.331 9.827-14.752 9.827-23.712.001-8.96-3.489-17.382-9.824-23.717zm-78.582 26.122c-8.79 6.14-17.957 11.63-27.447 16.437l-25.521-44.205h.85c11.55 0 22.697-1.759 33.188-5.021zm-328.191-200.259c0-10.923 8.887-19.81 19.811-19.81h60.09c4.143 0 7.5-3.358 7.5-7.5s-3.357-7.5-7.5-7.5h-52.408c3.931-85.527 74.736-153.9 161.217-153.9 7.506 0 13.612 6.106 13.612 13.612 0 7.505-6.106 13.612-13.612 13.612-4.143 0-7.5 3.358-7.5 7.5s3.357 7.5 7.5 7.5c7.506 0 13.612 6.106 13.612 13.612s-6.106 13.612-13.612 13.612c-4.143 0-7.5 3.358-7.5 7.5s3.357 7.5 7.5 7.5c7.506 0 13.612 6.106 13.612 13.612s-6.106 13.612-13.612 13.612c-4.143 0-7.5 3.358-7.5 7.5s3.357 7.5 7.5 7.5c7.506 0 13.612 6.106 13.612 13.612s-6.106 13.612-13.612 13.612c-.026 0-.051.004-.077.004h-78.733c-4.143 0-7.5 3.358-7.5 7.5s3.357 7.5 7.5 7.5h265.11c5.29 0 10.265 2.061 14.007 5.803 3.742 3.743 5.804 8.717 5.804 14.007 0 10.923-8.887 19.81-19.811 19.81h-355.2c-5.29 0-10.265-2.061-14.007-5.803-3.742-3.743-5.803-8.717-5.803-14.007zm21.79 60.535v-25.721h351.24v25.721c0 53.462-43.495 96.957-96.957 96.957h-157.326c-53.462 0-96.957-43.495-96.957-96.957zm63.765 106.934c10.492 3.263 21.64 5.023 33.192 5.023h.855l-25.521 44.207c-9.494-4.809-18.665-10.301-27.458-16.444zm22.183 55.574 29.184-50.551h120.981l29.183 50.549c-27.984 11.906-58.347 18.169-89.676 18.169-31.328 0-61.689-6.262-89.672-18.167z"/></g></svg>